<svg width="18" height="18" viewBox="0 0 18 18" fill="none" xmlns="http://www.w3.org/2000/svg">
<path d="M0.930446 0.0679051C0.822829 0.0140803 0.702266 -0.00846139 0.582471 0.00284431C0.462676 0.01415 0.348459 0.0588492 0.252812 0.131857C0.157165 0.204865 0.0839273 0.303251 0.0414301 0.415824C-0.001067 0.528396 -0.0111177 0.650636 0.0124215 0.768638L1.81633 7.00452C1.84996 7.12073 1.91571 7.22509 2.006 7.3056C2.0963 7.38612 2.20748 7.43952 2.32677 7.45967L9.64268 8.68499C9.98726 8.75314 9.98726 9.24686 9.64268 9.31501L2.32677 10.5403C2.20748 10.5605 2.0963 10.6139 2.006 10.6944C1.91571 10.7749 1.84996 10.8793 1.81633 10.9955L0.0124215 17.2314C-0.0111177 17.3494 -0.001067 17.4716 0.0414301 17.5842C0.0839273 17.6967 0.157165 17.7951 0.252812 17.8681C0.348459 17.9412 0.462676 17.9858 0.582471 17.9972C0.702266 18.0085 0.822829 17.9859 0.930446 17.9321L17.6452 9.57473C17.7518 9.52128 17.8415 9.43922 17.9041 9.33772C17.9668 9.23622 18 9.11928 18 9C18 8.88071 17.9668 8.76378 17.9041 8.66228C17.8415 8.56078 17.7518 8.47872 17.6452 8.42527L0.930446 0.0679051Z" fill="black"/>
</svg>
